<mxfile host="Electron" agent="Mozilla/5.0 (X11; Linux x86_64) AppleWebKit/537.36 (KHTML, like Gecko) draw.io/24.7.8 Chrome/128.0.6613.36 Electron/32.0.1 Safari/537.36" version="24.7.8">
  <diagram name="Page-1" id="U2EPF4f_37WxK7jrNEku">
    <mxGraphModel dx="1202" dy="1079" grid="1" gridSize="10" guides="1" tooltips="1" connect="1" arrows="1" fold="1" page="1" pageScale="1" pageWidth="827" pageHeight="1169" math="0" shadow="0">
      <root>
        <mxCell id="0" />
        <mxCell id="1" parent="0" />
        <mxCell id="rNtfW3GsaHCUcEGyavf--10" value="" style="orthogonalLoop=1;jettySize=auto;html=1;strokeWidth=1;shape=flexArrow;fillColor=#e1d5e7;strokeColor=#9673a6;" parent="1" edge="1">
          <mxGeometry relative="1" as="geometry">
            <mxPoint x="320" y="241" as="sourcePoint" />
            <mxPoint x="470" y="241" as="targetPoint" />
          </mxGeometry>
        </mxCell>
        <mxCell id="rNtfW3GsaHCUcEGyavf--11" value="&lt;font style=&quot;font-size: 24px;&quot;&gt;Testbench&lt;/font&gt;" style="rounded=1;whiteSpace=wrap;html=1;fillColor=#dae8fc;strokeColor=#6c8ebf;" parent="1" vertex="1">
          <mxGeometry x="110" y="210" width="190" height="150" as="geometry" />
        </mxCell>
        <mxCell id="rNtfW3GsaHCUcEGyavf--12" value="&lt;span style=&quot;font-size: 24px;&quot;&gt;Model under test&lt;/span&gt;" style="rounded=1;whiteSpace=wrap;html=1;fillColor=#dae8fc;strokeColor=#6c8ebf;" parent="1" vertex="1">
          <mxGeometry x="490" y="200" width="240" height="165" as="geometry" />
        </mxCell>
        <mxCell id="rNtfW3GsaHCUcEGyavf--18" value="" style="orthogonalLoop=1;jettySize=auto;html=1;strokeWidth=1;shape=flexArrow;fillColor=#e1d5e7;strokeColor=#9673a6;" parent="1" edge="1">
          <mxGeometry relative="1" as="geometry">
            <mxPoint x="470" y="330" as="sourcePoint" />
            <mxPoint x="320" y="330" as="targetPoint" />
          </mxGeometry>
        </mxCell>
      </root>
    </mxGraphModel>
  </diagram>
</mxfile>
